<?xml version="1.0" encoding="utf-8"?>
<!-- Generator: Adobe Illustrator 16.0.0, SVG Export Plug-In . SVG Version: 6.00 Build 0)  -->
<!DOCTYPE svg PUBLIC "-//W3C//DTD SVG 1.1//EN" "http://www.w3.org/Graphics/SVG/1.1/DTD/svg11.dtd">
<svg version="1.1" id="Layer_1" xmlns="http://www.w3.org/2000/svg" xmlns:xlink="http://www.w3.org/1999/xlink" x="0px" y="0px"
	 width="120.867px" height="119.875px" viewBox="0 0 120.867 119.875" enable-background="new 0 0 120.867 119.875"
	 xml:space="preserve">
<g id="compact">
	<g>
		<path fill="#FFFFFF" d="M51.064,55.945v7.814c0,0.145,0.118,0.264,0.264,0.264h2.274c0.145,0,0.264-0.119,0.264-0.264v-7.814
			h2.525v-2.027c0-0.145-0.119-0.264-0.264-0.264h-7.331c-0.146,0-0.264,0.119-0.264,0.264v1.763c0,0.146,0.119,0.265,0.264,0.265
			H51.064z"/>
		<path fill="#FFFFFF" d="M23.569,55.937c0.166-0.127,0.431-0.191,0.794-0.191c0.705,0,2.263,0.575,2.263,0.575
			c0.137,0.051,0.292-0.019,0.346-0.154l0.761-1.917c-1.116-0.497-2.21-0.745-3.285-0.745c-1.215,0-2.17,0.268-2.865,0.802
			c-0.695,0.535-1.043,1.279-1.043,2.234c0,0.511,0.082,0.953,0.245,1.326c0.163,0.374,0.414,0.705,0.752,0.993
			c0.337,0.288,0.845,0.586,1.521,0.894c0.747,0.335,1.206,0.558,1.379,0.667c0.172,0.108,0.297,0.216,0.376,0.323
			c0.078,0.105,0.116,0.229,0.116,0.371c0,0.228-0.097,0.413-0.291,0.557c-0.193,0.146-0.499,0.217-0.915,0.217
			c-0.482,0-1.012-0.076-1.589-0.23c-0.577-0.154-1.425-0.533-1.425-0.533c-0.132-0.061-0.242,0.01-0.242,0.156v2.231
			c0.506,0.241,0.993,0.411,1.461,0.508s1.048,0.145,1.738,0.145c0.828,0,1.549-0.138,2.164-0.414
			c0.614-0.276,1.084-0.665,1.412-1.163c0.326-0.499,0.489-1.07,0.489-1.713c0-0.7-0.174-1.281-0.521-1.742
			c-0.348-0.461-0.969-0.892-1.862-1.294c-0.932-0.425-1.503-0.718-1.713-0.879c-0.211-0.161-0.316-0.343-0.316-0.545
			C23.321,56.224,23.404,56.065,23.569,55.937z"/>
		<path fill="#FFFFFF" d="M37.812,54.845c-0.851-0.903-2.102-1.355-3.752-1.355c-1.646,0-2.9,0.456-3.763,1.366
			c-0.863,0.91-1.294,2.229-1.294,3.955c0,1.744,0.434,3.074,1.302,3.986c0.867,0.912,2.114,1.368,3.741,1.368
			c1.651,0,2.903-0.453,3.759-1.361c0.856-0.907,1.284-2.233,1.284-3.979C39.088,57.075,38.663,55.748,37.812,54.845z
			 M35.624,61.101c-0.343,0.487-0.869,0.73-1.578,0.73c-1.395,0-2.092-1.002-2.092-3.007c0-2.024,0.702-3.036,2.106-3.036
			c0.69,0,1.209,0.247,1.557,0.741c0.347,0.495,0.521,1.26,0.521,2.295C36.138,59.855,35.966,60.614,35.624,61.101z"/>
		<path fill="#FFFFFF" d="M89.598,59.505c1.174-0.657,1.76-1.587,1.76-2.788c0-2.043-1.41-3.064-4.229-3.064h-3.133
			c-0.146,0-0.264,0.119-0.264,0.264v9.842c0,0.145,0.118,0.264,0.264,0.264h2.273c0.146,0,0.265-0.119,0.265-0.264V60.25h0.709
			l2.198,3.773h2.914c0.145,0,0.198-0.098,0.117-0.219L89.598,59.505z M87.059,58.143h-0.524v-2.104
			c0-0.146,0.118-0.264,0.264-0.264h0.29c0.959,0,1.438,0.357,1.438,1.071C88.527,57.711,88.038,58.143,87.059,58.143z"/>
		<path fill="#FFFFFF" d="M60.046,53.653h-2.174c-0.146,0-0.236,0.116-0.2,0.257l2.44,9.857c0.035,0.141,0.183,0.256,0.328,0.256
			h2.784c0.146,0,0.29-0.115,0.321-0.258l0,0c0.57-2.559,0.896-4.024,0.976-4.395c0.082-0.383,0.166-0.803,0.251-1.259
			c0.085-0.457,0.147-0.838,0.185-1.146c0.047,0.378,0.121,0.849,0.224,1.411c0.102,0.564,0.167,0.87,0.167,0.87
			c0.031,0.142,0.992,4.518,0.992,4.518c0.031,0.143,0.176,0.258,0.321,0.258h2.784c0.146,0,0.293-0.115,0.327-0.256l2.49-10.114
			h-2.438c-0.146,0-0.29,0.116-0.321,0.258l-1.093,4.955c-0.274,1.295-0.442,2.205-0.503,2.73c-0.053-0.406-0.156-1.021-0.312-1.844
			c-0.156-0.823-0.402-1.92-0.402-1.92c-0.033-0.142-0.085-0.373-0.116-0.515l-0.771-3.407c-0.033-0.142-0.178-0.258-0.322-0.258
			h-2.068c-0.145,0-0.291,0.116-0.324,0.257l-0.855,3.666c-0.137,0.544-0.285,1.229-0.442,2.058
			c-0.159,0.827-0.269,1.481-0.33,1.964c-0.095-0.681-0.471-2.486-0.471-2.486c-0.029-0.143-0.08-0.375-0.11-0.517l-1.016-4.683
			C60.334,53.77,60.191,53.653,60.046,53.653z"/>
		<path fill="#FFFFFF" d="M43.845,55.902h3.105v-1.985c0-0.145-0.119-0.264-0.264-0.264h-5.6c-0.146,0-0.265,0.119-0.265,0.264
			v9.842c0,0.145,0.119,0.264,0.265,0.264h2.23c0.146,0,0.264-0.119,0.264-0.264v-3.63h3.108v-1.984c0-0.145-0.12-0.264-0.265-0.264
			h-2.843v-1.715C43.581,56.021,43.7,55.902,43.845,55.902z"/>
		<path fill="#FFFFFF" d="M99.733,53.653h-5.628c-0.146,0-0.265,0.119-0.265,0.264v9.842c0,0.145,0.119,0.264,0.265,0.264h5.893
			v-2.02c0-0.145-0.119-0.264-0.265-0.264h-2.826c-0.146,0-0.264-0.119-0.264-0.265v-1.693h3.105v-1.984
			c0-0.146-0.119-0.264-0.264-0.264h-2.842v-1.368c0-0.145,0.118-0.263,0.264-0.263h2.826c0.146,0,0.265-0.119,0.265-0.264v-1.721
			C99.998,53.772,99.878,53.653,99.733,53.653z"/>
		<path fill="#FFFFFF" d="M81.61,61.734l-2.59-7.872c-0.045-0.138-0.201-0.25-0.347-0.25h-3.21c-0.146,0-0.301,0.112-0.346,0.25
			l-3.311,10.161h2.822c0.146,0,0.295-0.113,0.334-0.254c0,0,0.23-0.883,0.528-2.035h3.218l0.594,2.289h2.796
			c0.146,0,0.228-0.112,0.182-0.25L81.61,61.734z M76.087,59.437c0.367-1.42,0.694-2.696,0.747-2.924
			c0.125-0.554,0.209-0.95,0.252-1.192c0.047,0.26,0.145,0.691,0.295,1.291c0.148,0.601,0.73,2.825,0.73,2.825H76.087z"/>
		<path fill="#FFFFFF" d="M51.946,50.553h2.552v-2.83h3.256v2.566c0,0.145,0.119,0.264,0.264,0.264h2.288
			c0.145,0,0.264-0.12,0.264-0.264v-2.566v-7.54h-2.551c-0.146,0-0.264,0.119-0.264,0.264v4.978h-3.256v-4.978
			c0-0.145-0.119-0.264-0.265-0.264h-2.288c-0.145,0-0.264,0.119-0.264,0.264v9.842C51.682,50.434,51.801,50.553,51.946,50.553z"/>
		<path fill="#FFFFFF" d="M49.672,49.117c0.328-0.499,0.49-1.07,0.49-1.713c0-0.7-0.173-1.281-0.521-1.742s-0.968-0.893-1.862-1.294
			c-0.932-0.425-1.502-0.718-1.713-0.879c-0.21-0.161-0.315-0.343-0.315-0.547c0-0.188,0.083-0.347,0.248-0.475
			c0.166-0.128,0.43-0.192,0.794-0.192c0.705,0,2.264,0.576,2.264,0.576c0.136,0.05,0.292-0.019,0.345-0.154l0.761-1.917
			c-1.116-0.497-2.211-0.745-3.283-0.745c-1.215,0-2.171,0.267-2.866,0.802c-0.695,0.534-1.043,1.278-1.043,2.233
			c0,0.511,0.082,0.953,0.245,1.327c0.164,0.373,0.415,0.704,0.752,0.992c0.337,0.289,0.845,0.587,1.521,0.895
			c0.748,0.335,1.207,0.558,1.38,0.667c0.172,0.109,0.298,0.216,0.375,0.323c0.079,0.106,0.118,0.23,0.118,0.373
			c0,0.227-0.098,0.413-0.291,0.557c-0.194,0.144-0.499,0.216-0.916,0.216c-0.482,0-1.012-0.077-1.588-0.231
			c-0.577-0.153-1.426-0.534-1.426-0.534c-0.132-0.059-0.241,0.011-0.241,0.156v2.232c0.506,0.241,0.993,0.41,1.461,0.507
			c0.468,0.097,1.048,0.145,1.738,0.145c0.827,0,1.549-0.138,2.164-0.415C48.876,50.004,49.346,49.616,49.672,49.117z"/>
		<path fill="#FFFFFF" d="M64.93,50.302c0.045,0.138,0.2,0.251,0.346,0.251h2.771c0.146,0,0.301-0.113,0.347-0.251l3.315-10.119
			h-2.872c-0.145,0-0.295,0.114-0.333,0.255l-1.37,5.029c-0.076,0.285-0.164,0.675-0.263,1.171c-0.1,0.496-0.166,0.91-0.198,1.241
			c-0.029-0.459-0.424-2.183-0.424-2.183c-0.032-0.142-0.09-0.372-0.127-0.512l-1.275-4.746c-0.037-0.141-0.188-0.255-0.332-0.255
			h-2.621c-0.146,0-0.227,0.113-0.183,0.251L64.93,50.302z"/>
		<path fill="#FFFFFF" d="M75.645,50.29v-9.842c0-0.145-0.119-0.264-0.264-0.264h-2.288c-0.146,0-0.265,0.119-0.265,0.264v10.106
			h2.553C75.526,50.553,75.645,50.434,75.645,50.29z"/>
		<path fill="#FFFFFF" d="M20.804,50.553h2.219v-4.674c0-0.605-0.118-2.368-0.118-2.368c-0.01-0.146-0.003-0.264,0.014-0.264
			s0.087,0.105,0.154,0.235l3.549,6.836c0.067,0.129,0.24,0.234,0.386,0.234h3.142c0.145,0,0.264-0.119,0.264-0.264V40.183h-2.232
			c-0.145,0-0.264,0.119-0.264,0.264v4.424c0,0.634,0.085,2.254,0.085,2.254c0.008,0.145,0.004,0.264-0.007,0.264
			c-0.012,0-0.077-0.105-0.144-0.234l-3.643-6.973h-3.405c-0.145,0-0.264,0.119-0.264,0.264v9.842
			C20.54,50.434,20.66,50.553,20.804,50.553z"/>
		<path fill="#FFFFFF" d="M85.954,50.553h6.531v-1.998c0-0.146-0.119-0.264-0.264-0.264h-3.466c-0.146,0-0.264-0.119-0.264-0.265
			v-7.579c0-0.145-0.12-0.264-0.265-0.264h-2.273c-0.145,0-0.264,0.119-0.264,0.264v9.842C85.69,50.434,85.809,50.553,85.954,50.553
			z"/>
		<path fill="#FFFFFF" d="M77.801,50.553h6.531v-1.998c0-0.146-0.119-0.264-0.264-0.264h-3.466c-0.145,0-0.264-0.119-0.264-0.265
			v-7.579c0-0.145-0.119-0.264-0.265-0.264h-2.273c-0.145,0-0.264,0.119-0.264,0.264v9.842
			C77.538,50.434,77.657,50.553,77.801,50.553z"/>
		<path fill="#FFFFFF" d="M96.907,42.432h2.826c0.146,0,0.265-0.119,0.265-0.264v-1.721c0-0.145-0.119-0.264-0.265-0.264h-5.628
			c-0.146,0-0.265,0.119-0.265,0.264v9.842c0,0.145,0.119,0.264,0.265,0.264h5.893v-2.02c0-0.146-0.119-0.265-0.265-0.265h-2.826
			c-0.146,0-0.264-0.118-0.264-0.264v-1.693h3.105v-1.984c0-0.146-0.119-0.264-0.264-0.264h-2.842v-1.367
			C96.643,42.55,96.761,42.432,96.907,42.432z"/>
		<path fill="#FFFFFF" d="M34.682,50.298c0,0,0.23-0.882,0.528-2.034h3.217l0.594,2.289h2.795c0.146,0,0.228-0.113,0.183-0.251
			l-0.671-2.038l-2.59-7.873c-0.045-0.138-0.201-0.25-0.346-0.25h-3.209c-0.146,0-0.302,0.113-0.346,0.25l-3.311,10.162h2.823
			C34.495,50.553,34.644,50.438,34.682,50.298z M36.553,43.042c0.125-0.553,0.209-0.95,0.252-1.191
			c0.047,0.26,0.146,0.691,0.294,1.291c0.148,0.601,0.732,2.825,0.732,2.825h-2.025C36.173,44.546,36.501,43.271,36.553,43.042z"/>
		<path fill="#FFFFFF" d="M44.543,67.388v4.978h-3.256v-4.978c0-0.146-0.118-0.265-0.264-0.265h-2.288
			c-0.146,0-0.264,0.118-0.264,0.265v9.841c0,0.146,0.119,0.264,0.264,0.264h2.551v-2.828l3.256-0.001v2.565
			c0,0.146,0.12,0.264,0.265,0.264h2.288c0.146,0,0.264-0.117,0.264-0.264v-2.565v-7.54h-2.551
			C44.663,67.124,44.543,67.242,44.543,67.388z"/>
		<path fill="#FFFFFF" d="M23.569,69.408c0.166-0.128,0.431-0.191,0.794-0.191c0.705,0,2.263,0.575,2.263,0.575
			c0.137,0.05,0.292-0.019,0.346-0.153l0.761-1.918c-1.116-0.497-2.21-0.746-3.285-0.746c-1.215,0-2.17,0.268-2.865,0.802
			c-0.695,0.534-1.043,1.28-1.043,2.234c0,0.512,0.082,0.953,0.245,1.327c0.163,0.373,0.414,0.703,0.752,0.993
			c0.337,0.288,0.845,0.586,1.521,0.894c0.747,0.336,1.206,0.557,1.379,0.667c0.172,0.108,0.297,0.217,0.376,0.322
			c0.078,0.106,0.116,0.23,0.116,0.372c0,0.228-0.097,0.412-0.291,0.557c-0.193,0.145-0.499,0.217-0.915,0.217
			c-0.482,0-1.012-0.077-1.589-0.23c-0.577-0.153-1.425-0.534-1.425-0.534c-0.132-0.06-0.242,0.012-0.242,0.155v2.234
			c0.506,0.241,0.993,0.41,1.461,0.507s1.048,0.145,1.738,0.145c0.828,0,1.549-0.138,2.164-0.415
			c0.614-0.277,1.084-0.665,1.412-1.163c0.326-0.498,0.489-1.069,0.489-1.713c0-0.7-0.174-1.28-0.521-1.741
			c-0.348-0.461-0.969-0.893-1.862-1.295c-0.932-0.426-1.503-0.719-1.713-0.879c-0.211-0.16-0.316-0.343-0.316-0.546
			C23.321,69.695,23.404,69.536,23.569,69.408z"/>
		<path fill="#FFFFFF" d="M33.808,69.273c0.439,0,0.852,0.061,1.234,0.185c0.383,0.122,0.906,0.349,0.906,0.349
			c0.134,0.058,0.286-0.006,0.339-0.141l0.762-1.96c-1.021-0.488-2.093-0.731-3.213-0.731c-1.026,0-1.919,0.22-2.678,0.656
			c-0.759,0.438-1.341,1.063-1.746,1.877c-0.403,0.812-0.606,1.756-0.606,2.83c0,1.716,0.417,3.028,1.252,3.937
			c0.834,0.907,2.034,1.361,3.599,1.361c1.093,0,2.685-0.496,2.685-0.496c0.139-0.043,0.252-0.197,0.252-0.343v-2.105
			c-0.436,0.181-0.868,0.334-1.298,0.463c-0.431,0.127-0.875,0.191-1.333,0.191c-1.518,0-2.277-0.999-2.277-2.993
			c0-0.961,0.187-1.713,0.56-2.261C32.622,69.545,33.142,69.273,33.808,69.273z"/>
		<path fill="#FFFFFF" d="M53.848,66.96c-1.646,0-2.9,0.455-3.763,1.365c-0.863,0.911-1.294,2.229-1.294,3.954
			c0,1.745,0.434,3.074,1.301,3.987c0.868,0.913,2.116,1.368,3.743,1.368c1.649,0,2.903-0.453,3.759-1.361s1.284-2.234,1.284-3.979
			c0-1.751-0.426-3.077-1.277-3.98C56.749,67.413,55.498,66.96,53.848,66.96z M55.412,74.572c-0.343,0.487-0.869,0.73-1.578,0.73
			c-1.396,0-2.093-1.003-2.093-3.007c0-2.024,0.702-3.036,2.107-3.036c0.69,0,1.209,0.246,1.557,0.741
			c0.348,0.494,0.521,1.258,0.521,2.295C55.926,73.326,55.755,74.085,55.412,74.572z"/>
		<path fill="#FFFFFF" d="M65.133,66.96c-1.646,0-2.9,0.455-3.763,1.365c-0.863,0.911-1.294,2.229-1.294,3.954
			c0,1.745,0.434,3.074,1.302,3.987c0.867,0.913,2.115,1.368,3.742,1.368c1.65,0,2.903-0.453,3.759-1.361
			c0.856-0.908,1.284-2.234,1.284-3.979c0-1.751-0.426-3.077-1.276-3.98C68.035,67.413,66.784,66.96,65.133,66.96z M66.698,74.572
			c-0.344,0.487-0.869,0.73-1.578,0.73c-1.395,0-2.092-1.003-2.092-3.007c0-2.024,0.701-3.036,2.105-3.036
			c0.69,0,1.209,0.246,1.557,0.741c0.348,0.494,0.521,1.258,0.521,2.295C67.211,73.326,67.042,74.085,66.698,74.572z"/>
		<path fill="#FFFFFF" d="M78.129,75.23h-3.464c-0.146,0-0.265-0.117-0.265-0.264v-7.578c0-0.146-0.118-0.266-0.264-0.266h-2.273
			c-0.145,0-0.265,0.119-0.265,0.266v9.841c0,0.146,0.12,0.264,0.265,0.264h6.531v-1.998C78.395,75.349,78.276,75.23,78.129,75.23z"
			/>
	</g>
	<g>
		<path fill="#EF4623" d="M86.051,8.729C51.353-8.582,25.478-0.141,8.427,34.019c-17.051,34.188-8.226,59.925,26.475,77.238
			c34.701,17.148,60.543,8.707,77.527-25.351C129.483,51.75,120.686,26.007,86.051,8.729z M108.923,63.13
			c-10.315,14.248-22.548,27.188-38.102,37.862c-4.865,3.339-11.963,7.308-19.451,8.563c-6.971,1.167-13.272-0.237-18.071-3.273
			c-9.236-5.843-16.116-17.64-20.836-33.562c-3.2-10.796-4.298-22.997-2.557-31.731c1.682-8.434,7.027-17.006,17.401-20.664
			c9.94-3.504,18.369-2.37,25.816-1.765c7.722,0.626,14.279,2.389,21.515,4.326c6.652,1.781,13.882,4.101,20.766,6.7
			c6.772,2.558,14.658,5.927,18.471,10.677C120.345,48.324,113.299,57.088,108.923,63.13z"/>
		<linearGradient id="SVGID_1_" gradientUnits="userSpaceOnUse" x1="110.8325" y1="89.0659" x2="10.0226" y2="30.8633">
			<stop  offset="0" style="stop-color:#F29431"/>
			<stop  offset="0.0896" style="stop-color:#F29431;stop-opacity:0.9104"/>
			<stop  offset="1" style="stop-color:#F29431;stop-opacity:0"/>
		</linearGradient>
		<path fill="url(#SVGID_1_)" d="M86.051,8.729C51.353-8.582,25.478-0.141,8.427,34.019c-17.051,34.188-8.226,59.925,26.475,77.238
			c34.701,17.148,60.543,8.707,77.527-25.351C129.483,51.75,120.686,26.007,86.051,8.729z M108.923,63.13
			c-10.315,14.248-22.548,27.188-38.102,37.862c-4.865,3.339-11.963,7.308-19.451,8.563c-6.971,1.167-13.272-0.237-18.071-3.273
			c-9.236-5.843-16.116-17.64-20.836-33.562c-3.2-10.796-4.298-22.997-2.557-31.731c1.682-8.434,7.027-17.006,17.401-20.664
			c9.94-3.504,18.369-2.37,25.816-1.765c7.722,0.626,14.279,2.389,21.515,4.326c6.652,1.781,13.882,4.101,20.766,6.7
			c6.772,2.558,14.658,5.927,18.471,10.677C120.345,48.324,113.299,57.088,108.923,63.13z"/>
	</g>
</g>
</svg>
